{"title":"Albert Nobbs (2011) DVDSCR XviD","uid":6839089,"size":982100700,"categoryP":"video","categoryS":"movies","magnet":"?xt=urn:btih:2405bd6dde8d339a390d116a8c65353b23341606&amp;dn=Albert+Nobbs+%282011%29+DVDSCR+XviD&amp;tr=udp%3A%2F%2Ftracker.openbittorrent.com%3A80&amp;tr=udp%3A%2F%2Fopen.demonii.com%3A1337&amp;tr=udp%3A%2F%2Ftracker.coppersurfer.tk%3A6969&amp;tr=udp%3A%2F%2Fexodus.desync.com%3A6969","seeders":2,"leechers":0,"uploader":"saint_vincent","files":1,"time":1322108689,"description":"Albert Nobbs (2011) DVDSCR XviD\n\nInfo:\n\nFormat : AVI\nFormat/Info : Audio Video Interleave\nFile size : 937 MiB\nDuration : 1h 53mn\nOverall bit rate : 1 153 Kbps\nWriting application : MEncoder Sherpya-SVN-r32492-4.2.5\nWriting library : MPlayer\n\nVideo\nID : 0\nFormat : MPEG-4 Visual\nFormat profile : Simple@L3\nFormat settings, BVOP : No\nFormat settings, QPel : No\nFormat settings, GMC : No warppoints\nFormat settings, Matrix : Default (H.263)\nCodec ID : XVID\nCodec ID/Hint : XviD\nDuration : 1h 53mn\nBit rate : 1 023 Kbps\nWidth : 720 pixels\nHeight : 480 pixels\nDisplay aspect ratio : 3:2\nFrame rate : 25.000 fps\nStandard : NTSC\nColor space : YUV\nChroma subsampling : 4:2:0\nBit depth : 8 bits\nScan type : Progressive\nCompression mode : Lossy\nBits/(Pixel*Frame) : 0.118\nStream size : 830 MiB (89%)\nWriting library : XviD 1.2.1 (UTC 2008-12-04)\n\nAudio\nID : 1\nFormat : MPEG Audio\nFormat version : Version 1\nFormat profile : Layer 3\nMode : Joint stereo\nMode extension : MS Stereo\nCodec ID : 55\nCodec ID/Hint : MP3\nDuration : 1h 53mn\nBit rate mode : Variable\nBit rate : 118 Kbps\nChannel(s) : 2 channels\nSampling rate : 44.1 KHz\nCompression mode : Lossy\nStream size : 96.0 MiB (10%)\nAlignment : Aligned on interleaves\nInterleave, duration : 26 ms (0.65 video frame)\nInterleave, preload duration : 513 ms\n\nDescription:\n\nGlenn Close plays a woman passing as a man in order to work and survive in 19th century Ireland. Some thirty years after donning men\\\\\\'s clothing, she finds herself trapped in a prison of her own making. ","torrent":{"xt":"urn:btih:2405bd6dde8d339a390d116a8c65353b23341606","amp;dn":"Albert+Nobbs+%282011%29+DVDSCR+XviD","amp;tr":["udp%3A%2F%2Ftracker.openbittorrent.com%3A80","udp%3A%2F%2Fopen.demonii.com%3A1337","udp%3A%2F%2Ftracker.coppersurfer.tk%3A6969","udp%3A%2F%2Fexodus.desync.com%3A6969"],"infoHash":"2405bd6dde8d339a390d116a8c65353b23341606","infoHashBuffer":{"type":"Buffer","data":[36,5,189,109,222,141,51,154,57,13,17,106,140,101,53,59,35,52,22,6]},"announce":[],"urlList":[]}}